<svg width="398" height="311" viewBox="0 0 398 311" fill="none" xmlns="http://www.w3.org/2000/svg">
<path d="M198.754 1.00797C308.309 1.00797 396.898 70.2101 396.898 155.332C396.898 240.454 308.309 309.656 198.754 309.656C89.1994 309.656 0.610657 240.454 0.610657 155.332C0.610688 70.2101 89.1994 1.00797 198.754 1.00797Z" stroke="url(#paint0_linear_16_273)"/>
<path d="M198.105 103.473C250.929 103.473 298.727 113.798 333.3 130.468C367.91 147.154 389.108 170.11 389.108 195.306C389.108 220.501 367.909 243.457 333.3 260.143C298.727 276.813 250.929 287.137 198.105 287.137C145.281 287.137 97.4826 276.813 62.9089 260.143C28.3001 243.457 7.1025 220.501 7.10223 195.306C7.10223 170.11 28.3001 147.154 62.9089 130.468C97.4826 113.798 145.281 103.473 198.105 103.473Z" stroke="url(#paint1_linear_16_273)"/>
<defs>
<linearGradient id="paint0_linear_16_273" x1="198.754" y1="0.507965" x2="198.754" y2="310.156" gradientUnits="userSpaceOnUse">
<stop offset="0.197917" stop-opacity="0"/>
<stop offset="1" stop-color="#3224A1"/>
</linearGradient>
<linearGradient id="paint1_linear_16_273" x1="198.105" y1="102.973" x2="198.105" y2="287.637" gradientUnits="userSpaceOnUse">
<stop offset="0.197917" stop-opacity="0"/>
<stop offset="1" stop-color="#3224A1"/>
</linearGradient>
</defs>
</svg>
