<svg width="1144" height="304" viewBox="0 0 1144 304" fill="none" xmlns="http://www.w3.org/2000/svg">
<path d="M571.912 1.07959C729.811 1.07962 872.744 18.028 976.187 45.4204C1027.91 59.1176 1069.73 75.4187 1098.61 93.4995C1127.52 111.597 1143.32 131.387 1143.32 152.026C1143.32 172.664 1127.52 192.455 1098.61 210.552C1069.73 228.633 1027.91 244.934 976.187 258.631C872.744 286.024 729.811 302.972 571.912 302.972C414.013 302.972 271.08 286.024 167.637 258.631C115.912 244.934 74.0888 228.633 45.209 210.552C16.3033 192.455 0.5 172.664 0.5 152.026C0.5 131.387 16.3033 111.597 45.209 93.4995C74.0888 75.4187 115.912 59.1176 167.637 45.4204C271.08 18.028 414.013 1.07959 571.912 1.07959Z" stroke="url(#paint0_linear_200_2)"/>
<path d="M577.754 1.07959C714.674 1.0796 838.613 18.0272 928.305 45.4155C973.154 59.1106 1009.41 75.4082 1034.45 93.4819C1059.49 111.564 1073.21 131.354 1073.21 152.026C1073.21 172.698 1059.49 192.488 1034.45 210.57C1009.41 228.644 973.154 244.941 928.305 258.636C838.613 286.025 714.674 302.972 577.754 302.972C440.834 302.972 316.895 286.025 227.204 258.636C182.355 244.941 146.097 228.644 121.062 210.57C96.0159 192.488 82.2944 172.698 82.2944 152.026C82.2944 131.354 96.0159 111.564 121.062 93.4819C146.097 75.4081 182.355 59.1106 227.204 45.4155C316.895 18.0272 440.834 1.07959 577.754 1.07959Z" stroke="url(#paint1_linear_200_2)"/>
<path d="M591.387 1.07959C715.934 1.07962 828.67 18.0267 910.251 45.4116C951.044 59.105 984.021 75.3992 1006.79 93.4683C1029.56 111.541 1042.05 131.333 1042.05 152.026C1042.05 172.719 1029.56 192.51 1006.79 210.583C984.021 228.653 951.044 244.947 910.251 258.64C828.67 286.025 715.934 302.972 591.387 302.972C466.84 302.972 354.103 286.025 272.522 258.64C231.729 244.947 198.752 228.653 175.985 210.583C153.212 192.51 140.719 172.719 140.719 152.026C140.719 131.333 153.212 111.541 175.985 93.4683C198.752 75.3992 231.729 59.1049 272.522 45.4116C354.103 18.0267 466.84 1.07959 591.387 1.07959Z" stroke="url(#paint2_linear_200_2)"/>
<defs>
<linearGradient id="paint0_linear_200_2" x1="571.912" y1="0.57959" x2="571.912" y2="303.472" gradientUnits="userSpaceOnUse">
<stop stop-opacity="0"/>
<stop offset="0.479167" stop-color="#3224A1"/>
</linearGradient>
<linearGradient id="paint1_linear_200_2" x1="577.754" y1="0.57959" x2="577.754" y2="303.472" gradientUnits="userSpaceOnUse">
<stop stop-opacity="0"/>
<stop offset="0.479167" stop-color="#3224A1"/>
</linearGradient>
<linearGradient id="paint2_linear_200_2" x1="591.387" y1="0.57959" x2="591.387" y2="303.472" gradientUnits="userSpaceOnUse">
<stop stop-opacity="0"/>
<stop offset="0.479167" stop-color="#3224A1"/>
</linearGradient>
</defs>
</svg>
